{
   "accessors" : [
      {
         "bufferView" : 2,
         "byteOffset" : 0,
         "componentType" : 5126,
         "count" : 2040,
         "max" : [ 1, 1, 1, 1 ],
         "min" : [ 0.006584956776350737, 0.006584956776350737, 0.006584956776350737, 1 ],
         "name" : "accessor_color_m0-PolyPaper21_-77984",
         "type" : "VEC4"
      },
      {
         "bufferView" : 0,
         "byteOffset" : 0,
         "componentType" : 5123,
         "count" : 2880,
         "max" : [ 2039 ],
         "min" : [ 0 ],
         "name" : "accessor_indices_0_m0-PolyPaper21_-77984",
         "type" : "SCALAR"
      },
      {
         "bufferView" : 1,
         "byteOffset" : 24480,
         "componentType" : 5126,
         "count" : 2040,
         "max" : [ 0.9770335999999999, 0.9932154, 0.9795789 ],
         "min" : [ -0.9770334000000001, -0.9932159, -0.9795785 ],
         "name" : "accessor_normal_m0-PolyPaper21_-77984",
         "type" : "VEC3"
      },
      {
         "bufferView" : 1,
         "byteOffset" : 0,
         "componentType" : 5126,
         "count" : 2040,
         "max" : [ -0.2737974, 2.095975, -0.1408192 ],
         "min" : [ -0.7154685, 1.685975, -0.5445905 ],
         "name" : "accessor_position_m0-PolyPaper21_-77984",
         "type" : "VEC3"
      }
   ],
   "asset" : {
      "copyright" : "Unknown",
      "extras" : {
         "GOOGLE_processor_version" : 304107282
      },
      "generator" : "glTF 1-to-2 Upgrader for Google Blocks",
      "version" : "2.0"
   },
   "bufferViews" : [
      {
         "buffer" : 0,
         "byteLength" : 5760,
         "byteOffset" : 0,
         "name" : "ushortBufferView",
         "target" : 34963
      },
      {
         "buffer" : 0,
         "byteLength" : 48960,
         "byteOffset" : 5760,
         "byteStride" : 12,
         "name" : "vec3BufferView",
         "target" : 34962
      },
      {
         "buffer" : 0,
         "byteLength" : 32640,
         "byteOffset" : 54720,
         "byteStride" : 16,
         "name" : "vec4BufferView",
         "target" : 34962
      }
   ],
   "buffers" : [
      {
         "byteLength" : 87360,
         "name" : "model",
         "uri" : "model.bin"
      }
   ],
   "cameras" : [
      {
         "perspective" : {
            "yfov" : 0.7853981633974483,
            "znear" : 0.1000000014901161
         },
         "type" : "perspective"
      }
   ],
   "extensions" : {
      "KHR_lights_punctual" : {
         "lights" : [
            {
               "color" : [ 1, 0.9333333333333333, 0.8666666666666667 ],
               "intensity" : 0.25,
               "name" : "headLight",
               "type" : "directional"
            },
            {
               "color" : [ 1, 0.9333333333333333, 0.8666666666666667 ],
               "intensity" : 0.324999988079071,
               "name" : "keyLight",
               "type" : "directional"
            }
         ]
      }
   },
   "extensionsUsed" : [ "GOOGLE_backgrounds", "GOOGLE_camera_settings", "KHR_lights_punctual" ],
   "extras" : {
      "GOOGLE_initial_camera_motion" : {
         "motionPath" : "FULL_ROTATION"
      },
      "GOOGLE_lighting_rig" : {
         "disableShadows" : false
      }
   },
   "materials" : [
      {
         "alphaMode" : "OPAQUE",
         "doubleSided" : false,
         "name" : "BlocksPaper",
         "pbrMetallicRoughness" : {
            "baseColorFactor" : [ 1, 1, 1, 1 ],
            "metallicFactor" : 0,
            "roughnessFactor" : 0.6
         }
      },
      {
         "alphaMode" : "BLEND",
         "doubleSided" : false,
         "name" : "BlocksGlass",
         "pbrMetallicRoughness" : {
            "baseColorFactor" : [ 0.2, 0.2, 1, 0.3 ],
            "metallicFactor" : 1,
            "roughnessFactor" : 0.4
         }
      },
      {
         "alphaMode" : "OPAQUE",
         "doubleSided" : true,
         "name" : "BlocksGem",
         "pbrMetallicRoughness" : {
            "baseColorFactor" : [ 1, 0.4, 1, 1 ],
            "metallicFactor" : 0,
            "roughnessFactor" : 0.1
         }
      }
   ],
   "meshes" : [
      {
         "name" : "mesh_m0-PolyPaper21_-77984",
         "primitives" : [
            {
               "attributes" : {
                  "COLOR_0" : 0,
                  "NORMAL" : 2,
                  "POSITION" : 3
               },
               "indices" : 1,
               "material" : 0,
               "mode" : 4
            }
         ]
      }
   ],
   "nodes" : [
      {
         "mesh" : 0,
         "name" : "node_MeshObject-713238528-PolyPaper21"
      },
      {
         "children" : [ 2 ]
      },
      {
         "children" : [ 3 ],
         "extras" : {
            "isTransformNode" : 1
         },
         "translation" : [ -0.5100334202431924, 1.891383243470412, -0.3401880565599985 ]
      },
      {
         "children" : [ 0 ],
         "translation" : [ 0.5100334202431924, -1.891383243470412, 0.3401880565599985 ]
      },
      {
         "camera" : 0,
         "children" : [ 5 ],
         "rotation" : [
            -0.06949119180435025,
            0.6664495426448257,
            0.06261313259211188,
            0.7396590951222844
         ],
         "translation" : [ 0.2030345209215532, 2.027286004367922, -0.2657361117519434 ]
      },
      {
         "extensions" : {
            "KHR_lights_punctual" : {
               "light" : 0
            }
         },
         "extras" : {
            "isHeadLight" : 1
         },
         "name" : "headLightNode",
         "translation" : [ -0.4033339830750851, 0.2016669915375425, 0.2016669915375425 ]
      },
      {
         "extensions" : {
            "KHR_lights_punctual" : {
               "light" : 1
            }
         },
         "extras" : {
            "isKeyLight" : 1
         },
         "name" : "keyLightNode",
         "rotation" : [ -0.7505326882858236, -0.3752663441429118, 0, 0.5439447166468927 ],
         "scale" : [ 0, 0, 0.4073673229058359 ],
         "translation" : [ -0.7670283062836478, 2.756050821272487, -0.7286155888021937 ]
      }
   ],
   "scene" : 0,
   "scenes" : [
      {
         "extensions" : {
            "GOOGLE_backgrounds" : {
               "color" : [ 0.1568627450980392, 0.207843137254902, 0.5764705882352941 ]
            },
            "GOOGLE_camera_settings" : {
               "pivot" : [ -0.5099828682104369, 1.891381690957231, -0.3401849419251102 ]
            }
         },
         "extras" : {
            "GOOGLE_camera_index" : {
               "cameraIndex" : 0,
               "nodeIndex" : 4
            },
            "GOOGLE_geometry_data" : {
               "stats" : {
                  "centroid" : [ -0.3596609833778119, 1.941316175460815, -0.3212482658963577 ],
                  "radius" : 0.4033339830750851,
                  "stdev" : 0.1511179578276599
               },
               "visualCenterPoint" : [ -0.5100334202431924, 1.891383243470412, -0.3401880565599985 ]
            }
         },
         "name" : "defaultScene",
         "nodes" : [ 1, 4, 6 ]
      }
   ]
}
